<mxfile host="app.diagrams.net" modified="2021-07-07T06:41:45.649Z" agent="5.0 (Macintosh; Intel Mac OS X 10_15_7) AppleWebKit/537.36 (KHTML, like Gecko) Chrome/91.0.4472.114 Safari/537.36" etag="qdlH6HcZ34eEIOqeqkfV" version="14.8.4" type="github">
  <diagram id="IJQTIVz0XBHhtz7GeEmy" name="Page-1">
    <mxGraphModel dx="1509" dy="2175" grid="1" gridSize="10" guides="1" tooltips="1" connect="1" arrows="1" fold="1" page="1" pageScale="1" pageWidth="827" pageHeight="1169" math="0" shadow="0">
      <root>
        <mxCell id="0" />
        <mxCell id="1" parent="0" />
        <mxCell id="G-4nyz9Tfzs4VZ82WxkJ-1" value="" style="fillColor=none;strokeColor=none;pointerEvents=0;fontStyle=0;html=1;whiteSpace=wrap;container=1;collapsible=0;childLayout=stackLayout;resizeParent=1;dropTarget=0;whiteSpace=wrap;fontSize=13;spacing=0;strokeOpacity=100;rounded=1;absoluteArcSize=1;arcSize=9;strokeWidth=2.3;" vertex="1" parent="1">
          <mxGeometry x="108" y="-640" width="1139.8503937007874" height="1033.75" as="geometry" />
        </mxCell>
        <mxCell id="G-4nyz9Tfzs4VZ82WxkJ-2" value="Ecommece" style="swimlane;html=1;whiteSpace=wrap;container=1;connectable=0;collapsible=0;fontStyle=0;startSize=30;dropTarget=0;rounded=0;whiteSpace=wrap;fontSize=13;spacing=0;strokeColor=#5e5e5e;strokeOpacity=100;strokeWidth=2.3;fontSize=16.7;fontColor=#333333;swimlaneFillColor=#ffffff;" vertex="1" parent="G-4nyz9Tfzs4VZ82WxkJ-1">
          <mxGeometry width="637.4251968503937" height="1033.75" as="geometry" />
        </mxCell>
        <mxCell id="G-4nyz9Tfzs4VZ82WxkJ-3" value="MemCache" style="swimlane;html=1;whiteSpace=wrap;container=1;connectable=0;collapsible=0;fontStyle=0;startSize=30;dropTarget=0;rounded=0;whiteSpace=wrap;fontSize=13;spacing=0;strokeColor=#5e5e5e;strokeOpacity=100;strokeWidth=2.3;fontSize=16.7;fontColor=#333333;swimlaneFillColor=#ffffff;" vertex="1" parent="G-4nyz9Tfzs4VZ82WxkJ-1">
          <mxGeometry x="637.4251968503937" width="240" height="1033.75" as="geometry" />
        </mxCell>
        <mxCell id="G-4nyz9Tfzs4VZ82WxkJ-4" value="PolicyService" style="swimlane;html=1;whiteSpace=wrap;container=1;connectable=0;collapsible=0;fontStyle=0;startSize=30;dropTarget=0;rounded=0;whiteSpace=wrap;fontSize=13;spacing=0;strokeColor=#5e5e5e;strokeOpacity=100;strokeWidth=2.3;fontSize=16.7;fontColor=#333333;swimlaneFillColor=#ffffff;" vertex="1" parent="G-4nyz9Tfzs4VZ82WxkJ-1">
          <mxGeometry x="877.4251968503937" width="262.4251968503937" height="1033.75" as="geometry" />
        </mxCell>
        <UserObject label=" Input REF01 (Key)" lucidchartObjectId="RfESLYu8Mq7B" id="G-4nyz9Tfzs4VZ82WxkJ-5">
          <mxCell style="html=1;overflow=block;blockSpacing=1;whiteSpace=wrap;shape=parallelogram;perimeter=parallelogramPerimeter;anchorPointDirection=0;whiteSpace=wrap;fontSize=16.7;fontColor=#333333;spacing=9;verticalAlign=middle;strokeColor=#5e5e5e;strokeOpacity=100;rounded=1;absoluteArcSize=1;arcSize=9;strokeWidth=2.3;" vertex="1" parent="1">
            <mxGeometry x="307" y="-595" width="180" height="60" as="geometry" />
          </mxCell>
        </UserObject>
        <UserObject label="" lucidchartObjectId="RfESrMxcXxwU" id="G-4nyz9Tfzs4VZ82WxkJ-6">
          <mxCell style="html=1;jettySize=18;whiteSpace=wrap;fontSize=13;strokeColor=#5E5E5E;strokeWidth=1.5;rounded=1;arcSize=12;edgeStyle=orthogonalEdgeStyle;startArrow=none;;endArrow=block;endFill=1;;exitX=0.5;exitY=1.019;exitPerimeter=0;entryX=0.5;entryY=0.002;entryPerimeter=0;" edge="1" parent="1" source="G-4nyz9Tfzs4VZ82WxkJ-5" target="G-4nyz9Tfzs4VZ82WxkJ-7">
            <mxGeometry width="100" height="100" relative="1" as="geometry">
              <Array as="points" />
            </mxGeometry>
          </mxCell>
        </UserObject>
        <UserObject label="Is Key In Cache?" lucidchartObjectId="RfESopePdf8R" id="G-4nyz9Tfzs4VZ82WxkJ-7">
          <mxCell style="html=1;overflow=block;blockSpacing=1;whiteSpace=wrap;rhombus;whiteSpace=wrap;fontSize=16.7;fontColor=#333333;spacing=3.8;strokeColor=#5e5e5e;strokeOpacity=100;rounded=1;absoluteArcSize=1;arcSize=9;strokeWidth=2.3;" vertex="1" parent="1">
            <mxGeometry x="314" y="-475" width="165" height="90" as="geometry" />
          </mxCell>
        </UserObject>
        <UserObject label="" lucidchartObjectId="RfESvp5Y9BBD" id="G-4nyz9Tfzs4VZ82WxkJ-8">
          <mxCell style="html=1;jettySize=18;whiteSpace=wrap;fontSize=13.3;fontColor=#333333;fontStyle=1;strokeColor=#5E5E5E;strokeWidth=1.5;rounded=1;arcSize=12;edgeStyle=orthogonalEdgeStyle;startArrow=none;;endArrow=block;endFill=1;;exitX=0.008;exitY=0.5;exitPerimeter=0;entryX=0.472;entryY=-0.015;entryPerimeter=0;" edge="1" parent="1" source="G-4nyz9Tfzs4VZ82WxkJ-7" target="G-4nyz9Tfzs4VZ82WxkJ-10">
            <mxGeometry width="100" height="100" relative="1" as="geometry">
              <Array as="points">
                <mxPoint x="218" y="-430" />
              </Array>
            </mxGeometry>
          </mxCell>
        </UserObject>
        <mxCell id="G-4nyz9Tfzs4VZ82WxkJ-9" value="Yes" style="text;html=1;resizable=0;labelBackgroundColor=#ffffff;align=center;verticalAlign=middle;fontStyle=1;fontColor=#333333;;fontSize=13.3;" vertex="1" parent="G-4nyz9Tfzs4VZ82WxkJ-8">
          <mxGeometry relative="1" as="geometry" />
        </mxCell>
        <UserObject label="&lt;div style=&quot;display: flex ; justify-content: center ; text-align: center ; align-items: baseline ; font-size: 0 ; line-height: 1.25 ; margin-top: -2px&quot;&gt;&lt;span&gt;&lt;span style=&quot;font-size: 16.7px ; color: #c92d39&quot;&gt;duplicate&lt;/span&gt;&lt;span style=&quot;font-size: 16.7px ; color: #333333&quot;&gt;&lt;br&gt;status 1&lt;br&gt;{&quot;statusCd&quot;:&quot;1&quot;}&lt;/span&gt;&lt;/span&gt;&lt;span&gt;&lt;span style=&quot;font-size: 16.7px ; color: #333333&quot;&gt;&lt;br&gt;&lt;/span&gt;&lt;/span&gt;&lt;span&gt;&lt;span style=&quot;font-size: 16.7px ; color: #333333&quot;&gt;&lt;br&gt;&lt;/span&gt;&lt;span style=&quot;color: rgba(0 , 0 , 0 , 0) ; font-family: monospace&quot;&gt;&lt;br&gt;%3CmxGraphModel%3E%3Croot%3E%3CmxCell%20id%3D%220%22%2F%3E%3CmxCell%20id%3D%221%22%20parent%3D%220%22%2F%3E%3CmxCell%20id%3D%222%22%20value%3D%22%22%20style%3D%22fillColor%3Dnone%3BstrokeColor%3Dnone%3BpointerEvents%3D0%3BfontStyle%3D0%3Bhtml%3D1%3BwhiteSpace%3Dwrap%3Bcontainer%3D1%3Bcollapsible%3D0%3BchildLayout%3DstackLayout%3BresizeParent%3D1%3BdropTarget%3D0%3BwhiteSpace%3Dwrap%3BfontSize%3D13%3Bspacing%3D0%3BstrokeOpacity%3D100%3Brounded%3D1%3BabsoluteArcSize%3D1%3BarcSize%3D9%3BstrokeWidth%3D2.3%3B%22%20vertex%3D%221%22%20parent%3D%221%22%3E%3CmxGeometry%20x%3D%22108%22%20y%3D%22-640%22%20width%3D%221139.8503937007874%22%20height%3D%221033.75%22%20as%3D%22geometry%22%2F%3E%3C%2FmxCell%3E%3CmxCell%20id%3D%223%22%20value%3D%22Ecommece%22%20style%3D%22swimlane%3Bhtml%3D1%3BwhiteSpace%3Dwrap%3Bcontainer%3D1%3Bconnectable%3D0%3Bcollapsible%3D0%3BfontStyle%3D0%3BstartSize%3D30%3BdropTarget%3D0%3Brounded%3D0%3BwhiteSpace%3Dwrap%3BfontSize%3D13%3Bspacing%3D0%3BstrokeColor%3D%235e5e5e%3BstrokeOpacity%3D100%3BstrokeWidth%3D2.3%3BfontSize%3D16.7%3BfontColor%3D%23333333%3BswimlaneFillColor%3D%23ffffff%3B%22%20vertex%3D%221%22%20parent%3D%222%22%3E%3CmxGeometry%20width%3D%22637.4251968503937%22%20height%3D%221033.75%22%20as%3D%22geometry%22%2F%3E%3C%2FmxCell%3E%3CmxCell%20id%3D%224%22%20value%3D%22MemCache%22%20style%3D%22swimlane%3Bhtml%3D1%3BwhiteSpace%3Dwrap%3Bcontainer%3D1%3Bconnectable%3D0%3Bcollapsible%3D0%3BfontStyle%3D0%3BstartSize%3D30%3BdropTarget%3D0%3Brounded%3D0%3BwhiteSpace%3Dwrap%3BfontSize%3D13%3Bspacing%3D0%3BstrokeColor%3D%235e5e5e%3BstrokeOpacity%3D100%3BstrokeWidth%3D2.3%3BfontSize%3D16.7%3BfontColor%3D%23333333%3BswimlaneFillColor%3D%23ffffff%3B%22%20vertex%3D%221%22%20parent%3D%222%22%3E%3CmxGeometry%20x%3D%22637.4251968503937%22%20width%3D%22240%22%20height%3D%221033.75%22%20as%3D%22geometry%22%2F%3E%3C%2FmxCell%3E%3CmxCell%20id%3D%225%22%20value%3D%22PaymentService%22%20style%3D%22swimlane%3Bhtml%3D1%3BwhiteSpace%3Dwrap%3Bcontainer%3D1%3Bconnectable%3D0%3Bcollapsible%3D0%3BfontStyle%3D0%3BstartSize%3D30%3BdropTarget%3D0%3Brounded%3D0%3BwhiteSpace%3Dwrap%3BfontSize%3D13%3Bspacing%3D0%3BstrokeColor%3D%235e5e5e%3BstrokeOpacity%3D100%3BstrokeWidth%3D2.3%3BfontSize%3D16.7%3BfontColor%3D%23333333%3BswimlaneFillColor%3D%23ffffff%3B%22%20vertex%3D%221%22%20parent%3D%222%22%3E%3CmxGeometry%20x%3D%22877.4251968503937%22%20width%3D%22262.4251968503937%22%20height%3D%221033.75%22%20as%3D%22geometry%22%2F%3E%3C%2FmxCell%3E%3CUserObject%20label%3D%22%20Input%20REF01%20(Key)%22%20lucidchartObjectId%3D%22RfESLYu8Mq7B%22%20id%3D%226%22%3E%3CmxCell%20style%3D%22html%3D1%3Boverflow%3Dblock%3BblockSpacing%3D1%3BwhiteSpace%3Dwrap%3Bshape%3Dparallelogram%3Bperimeter%3DparallelogramPerimeter%3BanchorPointDirection%3D0%3BwhiteSpace%3Dwrap%3BfontSize%3D16.7%3BfontColor%3D%23333333%3Bspacing%3D9%3BverticalAlign%3Dmiddle%3BstrokeColor%3D%235e5e5e%3BstrokeOpacity%3D100%3Brounded%3D1%3BabsoluteArcSize%3D1%3BarcSize%3D9%3BstrokeWidth%3D2.3%3B%22%20vertex%3D%221%22%20parent%3D%221%22%3E%3CmxGeometry%20x%3D%22307%22%20y%3D%22-595%22%20width%3D%22180%22%20height%3D%2260%22%20as%3D%22geometry%22%2F%3E%3C%2FmxCell%3E%3C%2FUserObject%3E%3CUserObject%20label%3D%22%22%20lucidchartObjectId%3D%22RfESrMxcXxwU%22%20id%3D%227%22%3E%3CmxCell%20style%3D%22html%3D1%3BjettySize%3D18%3BwhiteSpace%3Dwrap%3BfontSize%3D13%3BstrokeColor%3D%235E5E5E%3BstrokeWidth%3D1.5%3Brounded%3D1%3BarcSize%3D12%3BedgeStyle%3DorthogonalEdgeStyle%3BstartArrow%3Dnone%3B%3BendArrow%3Dblock%3BendFill%3D1%3B%3BexitX%3D0.5%3BexitY%3D1.019%3BexitPerimeter%3D0%3BentryX%3D0.5%3BentryY%3D0.002%3BentryPerimeter%3D0%3B%22%20edge%3D%221%22%20source%3D%226%22%20target%3D%228%22%20parent%3D%221%22%3E%3CmxGeometry%20width%3D%22100%22%20height%3D%22100%22%20relative%3D%221%22%20as%3D%22geometry%22%3E%3CArray%20as%3D%22points%22%2F%3E%3C%2FmxGeometry%3E%3C%2FmxCell%3E%3C%2FUserObject%3E%3CUserObject%20label%3D%22Is%20Key%20In%20Cache%3F%22%20lucidchartObjectId%3D%22RfESopePdf8R%22%20id%3D%228%22%3E%3CmxCell%20style%3D%22html%3D1%3Boverflow%3Dblock%3BblockSpacing%3D1%3BwhiteSpace%3Dwrap%3Brhombus%3BwhiteSpace%3Dwrap%3BfontSize%3D16.7%3BfontColor%3D%23333333%3Bspacing%3D3.8%3BstrokeColor%3D%235e5e5e%3BstrokeOpacity%3D100%3Brounded%3D1%3BabsoluteArcSize%3D1%3BarcSize%3D9%3BstrokeWidth%3D2.3%3B%22%20vertex%3D%221%22%20parent%3D%221%22%3E%3CmxGeometry%20x%3D%22314%22%20y%3D%22-475%22%20width%3D%22165%22%20height%3D%2290%22%20as%3D%22geometry%22%2F%3E%3C%2FmxCell%3E%3C%2FUserObject%3E%3CUserObject%20label%3D%22%22%20lucidchartObjectId%3D%22RfESvp5Y9BBD%22%20id%3D%229%22%3E%3CmxCell%20style%3D%22html%3D1%3BjettySize%3D18%3BwhiteSpace%3Dwrap%3BfontSize%3D13.3%3BfontColor%3D%23333333%3BfontStyle%3D1%3BstrokeColor%3D%235E5E5E%3BstrokeWidth%3D1.5%3Brounded%3D1%3BarcSize%3D12%3BedgeStyle%3DorthogonalEdgeStyle%3BstartArrow%3Dnone%3B%3BendArrow%3Dblock%3BendFill%3D1%3B%3BexitX%3D0.008%3BexitY%3D0.5%3BexitPerimeter%3D0%3BentryX%3D0.472%3BentryY%3D-0.015%3BentryPerimeter%3D0%3B%22%20edge%3D%221%22%20source%3D%228%22%20target%3D%2211%22%20parent%3D%221%22%3E%3CmxGeometry%20width%3D%22100%22%20height%3D%22100%22%20relative%3D%221%22%20as%3D%22geometry%22%3E%3CArray%20as%3D%22points%22%2F%3E%3C%2FmxGeometry%3E%3C%2FmxCell%3E%3C%2FUserObject%3E%3CmxCell%20id%3D%2210%22%20value%3D%22Yes%22%20style%3D%22text%3Bhtml%3D1%3Bresizable%3D0%3BlabelBackgroundColor%3D%23ffffff%3Balign%3Dcenter%3BverticalAlign%3Dmiddle%3BfontStyle%3D1%3BfontColor%3D%23333333%3B%3BfontSize%3D13.3%3B%22%20vertex%3D%221%22%20parent%3D%229%22%3E%3CmxGeometry%20relative%3D%221%22%20as%3D%22geometry%22%2F%3E%3C%2FmxCell%3E%3CUserObject%20label%3D%22%26lt%3Bdiv%20style%3D%26quot%3Bdisplay%3A%20flex%3B%20justify-content%3A%20center%3B%20text-align%3A%20center%3B%20align-items%3A%20baseline%3B%20font-size%3A%200%3B%20line-height%3A%201.25%3Bmargin-top%3A%20-2px%3B%26quot%3B%26gt%3B%26lt%3Bspan%26gt%3B%26lt%3Bspan%20style%3D%26quot%3Bfont-size%3A16.7px%3Bcolor%3A%23c92d39%3B%26quot%3B%26gt%3Bduplicate%26lt%3B%2Fspan%26gt%3B%26lt%3Bspan%20style%3D%26quot%3Bfont-size%3A16.7px%3Bcolor%3A%23333333%3B%26quot%3B%26gt%3B%26%2310%3Bstatus%201%26lt%3B%2Fspan%26gt%3B%26lt%3B%2Fspan%26gt%3B%26lt%3B%2Fdiv%26gt%3B%22%20lucidchartObjectId%3D%22RfES6oHhgi.R%22%20id%3D%2211%22%3E%3CmxCell%20style%3D%22html%3D1%3Boverflow%3Dblock%3BblockSpacing%3D1%3BwhiteSpace%3Dwrap%3Bshape%3Dparallelogram%3Bperimeter%3DparallelogramPerimeter%3BanchorPointDirection%3D0%3BwhiteSpace%3Dwrap%3BfontSize%3D13%3Bspacing%3D3.8%3BstrokeColor%3D%235e5e5e%3BstrokeOpacity%3D100%3Brounded%3D1%3BabsoluteArcSize%3D1%3BarcSize%3D9%3BstrokeWidth%3D2.3%3B%22%20vertex%3D%221%22%20parent%3D%221%22%3E%3CmxGeometry%20x%3D%22127%22%20y%3D%22-17%22%20width%3D%22120%22%20height%3D%2275%22%20as%3D%22geometry%22%2F%3E%3C%2FmxCell%3E%3C%2FUserObject%3E%3CUserObject%20label%3D%22%22%20lucidchartObjectId%3D%22RfESB-tBJiT.%22%20id%3D%2212%22%3E%3CmxCell%20style%3D%22html%3D1%3BjettySize%3D18%3BwhiteSpace%3Dwrap%3BfontSize%3D13.3%3BfontColor%3D%23333333%3BfontStyle%3D1%3BstrokeColor%3D%235E5E5E%3BstrokeWidth%3D1.5%3Brounded%3D1%3BarcSize%3D12%3BedgeStyle%3DorthogonalEdgeStyle%3BstartArrow%3Dnone%3B%3BendArrow%3Dblock%3BendFill%3D1%3B%3BexitX%3D0.992%3BexitY%3D0.5%3BexitPerimeter%3D0%3BentryX%3D0.5%3BentryY%3D-0.019%3BentryPerimeter%3D0%3B%22%20edge%3D%221%22%20source%3D%228%22%20target%3D%2214%22%20parent%3D%221%22%3E%3CmxGeometry%20width%3D%22100%22%20height%3D%22100%22%20relative%3D%221%22%20as%3D%22geometry%22%3E%3CArray%20as%3D%22points%22%2F%3E%3C%2FmxGeometry%3E%3C%2FmxCell%3E%3C%2FUserObject%3E%3CmxCell%20id%3D%2213%22%20value%3D%22No%22%20style%3D%22text%3Bhtml%3D1%3Bresizable%3D0%3BlabelBackgroundColor%3D%23ffffff%3Balign%3Dcenter%3BverticalAlign%3Dmiddle%3BfontStyle%3D1%3BfontColor%3D%23333333%3B%3BfontSize%3D13.3%3B%22%20vertex%3D%221%22%20parent%3D%2212%22%3E%3CmxGeometry%20relative%3D%221%22%20as%3D%22geometry%22%2F%3E%3C%2FmxCell%3E%3CUserObject%20label%3D%22Cache%20RefNo%2CUUID%22%20lucidchartObjectId%3D%22RfESqzr8yPql%22%20id%3D%2214%22%3E%3CmxCell%20style%3D%22html%3D1%3Boverflow%3Dblock%3BblockSpacing%3D1%3BwhiteSpace%3Dwrap%3B%3BwhiteSpace%3Dwrap%3BfontSize%3D16.7%3BfontColor%3D%23333333%3Bspacing%3D9%3BstrokeColor%3D%235E5E5E%3Brounded%3D1%3BabsoluteArcSize%3D1%3BarcSize%3D9%3BstrokeWidth%3D2.3%3B%22%20vertex%3D%221%22%20parent%3D%221%22%3E%3CmxGeometry%20x%3D%22513%22%20y%3D%22-370%22%20width%3D%22120%22%20height%3D%2260%22%20as%3D%22geometry%22%2F%3E%3C%2FmxCell%3E%3C%2FUserObject%3E%3CUserObject%20label%3D%22Key%3AREF01%26%2310%3BValue%3AUUID-X%22%20lucidchartObjectId%3D%22RfESrkKaoY10%22%20id%3D%2215%22%3E%3CmxCell%20style%3D%22html%3D1%3Boverflow%3Dblock%3BblockSpacing%3D1%3BwhiteSpace%3Dwrap%3B%3BwhiteSpace%3Dwrap%3BfontSize%3D16.7%3BfontColor%3D%23333333%3Balign%3Dleft%3Bspacing%3D9%3BverticalAlign%3Dtop%3BstrokeColor%3D%235e5e5e%3BstrokeOpacity%3D100%3Brounded%3D1%3BabsoluteArcSize%3D1%3BarcSize%3D9%3BstrokeWidth%3D2.3%3B%22%20vertex%3D%221%22%20parent%3D%221%22%3E%3CmxGeometry%20x%3D%22772%22%20y%3D%22-550%22%20width%3D%22120%22%20height%3D%2290%22%20as%3D%22geometry%22%2F%3E%3C%2FmxCell%3E%3C%2FUserObject%3E%3CUserObject%20label%3D%22sendDataToPayment%22%20lucidchartObjectId%3D%22RfES9Xd7AMhH%22%20id%3D%2216%22%3E%3CmxCell%20style%3D%22html%3D1%3Boverflow%3Dblock%3BblockSpacing%3D1%3BwhiteSpace%3Dwrap%3B%3BwhiteSpace%3Dwrap%3BfontSize%3D16.7%3BfontColor%3D%23333333%3Bspacing%3D9%3BstrokeColor%3D%235e5e5e%3BstrokeOpacity%3D100%3Brounded%3D1%3BabsoluteArcSize%3D1%3BarcSize%3D9%3BstrokeWidth%3D2.3%3B%22%20vertex%3D%221%22%20parent%3D%221%22%3E%3CmxGeometry%20x%3D%22352%22%20y%3D%22117%22%20width%3D%22180%22%20height%3D%2275%22%20as%3D%22geometry%22%2F%3E%3C%2FmxCell%3E%3C%2FUserObject%3E%3CUserObject%20label%3D%22%22%20lucidchartObjectId%3D%22RfESdF0UsaAf%22%20id%3D%2217%22%3E%3CmxCell%20style%3D%22html%3D1%3BjettySize%3D18%3BwhiteSpace%3Dwrap%3BfontSize%3D13%3BstrokeColor%3D%235E5E5E%3BstrokeWidth%3D1.5%3Brounded%3D1%3BarcSize%3D12%3BedgeStyle%3DorthogonalEdgeStyle%3BstartArrow%3Dnone%3B%3BendArrow%3Dblock%3BendFill%3D1%3B%3BexitX%3D1.009%3BexitY%3D0.5%3BexitPerimeter%3D0%3BentryX%3D0.5%3BentryY%3D1.013%3BentryPerimeter%3D0%3B%22%20edge%3D%221%22%20source%3D%2214%22%20target%3D%2215%22%20parent%3D%221%22%3E%3CmxGeometry%20width%3D%22100%22%20height%3D%22100%22%20relative%3D%221%22%20as%3D%22geometry%22%3E%3CArray%20as%3D%22points%22%2F%3E%3C%2FmxGeometry%3E%3C%2FmxCell%3E%3C%2FUserObject%3E%3CUserObject%20label%3D%22%22%20lucidchartObjectId%3D%22RfESupoxdjBH%22%20id%3D%2218%22%3E%3CmxCell%20style%3D%22html%3D1%3BjettySize%3D18%3BwhiteSpace%3Dwrap%3BfontSize%3D13%3BstrokeColor%3D%235E5E5E%3BstrokeWidth%3D1.5%3Brounded%3D1%3BarcSize%3D12%3BedgeStyle%3DorthogonalEdgeStyle%3BstartArrow%3Dnone%3B%3BendArrow%3Dblock%3BendFill%3D1%3B%3BexitX%3D0.5%3BexitY%3D1.019%3BexitPerimeter%3D0%3BentryX%3D0.5%3BentryY%3D0.004%3BentryPerimeter%3D0%3B%22%20edge%3D%221%22%20source%3D%2214%22%20target%3D%2219%22%20parent%3D%221%22%3E%3CmxGeometry%20width%3D%22100%22%20height%3D%22100%22%20relative%3D%221%22%20as%3D%22geometry%22%3E%3CArray%20as%3D%22points%22%3E%3CmxPoint%20x%3D%22573%22%20y%3D%22-290%22%2F%3E%3CmxPoint%20x%3D%22441%22%20y%3D%22-290%22%2F%3E%3C%2FArray%3E%3C%2FmxGeometry%3E%3C%2FmxCell%3E%3C%2FUserObject%3E%3CUserObject%20label%3D%22Is%20RefNo%20In%20Database%22%20lucidchartObjectId%3D%22RfESoaNUnF.c%22%20id%3D%2219%22%3E%3CmxCell%20style%3D%22html%3D1%3Boverflow%3Dblock%3BblockSpacing%3D1%3BwhiteSpace%3Dwrap%3Brhombus%3BwhiteSpace%3Dwrap%3BfontSize%3D16.7%3BfontColor%3D%23333333%3Bspacing%3D3.8%3BstrokeColor%3D%235E5E5E%3Brounded%3D1%3BabsoluteArcSize%3D1%3BarcSize%3D9%3BstrokeWidth%3D2.3%3B%22%20vertex%3D%221%22%20parent%3D%221%22%3E%3CmxGeometry%20x%3D%22371%22%20y%3D%22-250%22%20width%3D%22139%22%20height%3D%2298%22%20as%3D%22geometry%22%2F%3E%3C%2FmxCell%3E%3C%2FUserObject%3E%3CUserObject%20label%3D%22%22%20lucidchartObjectId%3D%22RfESz2cmBlqu%22%20id%3D%2220%22%3E%3CmxCell%20style%3D%22html%3D1%3BjettySize%3D18%3BwhiteSpace%3Dwrap%3BfontSize%3D13.3%3BfontColor%3D%23333333%3BfontStyle%3D1%3BstrokeColor%3D%235E5E5E%3BstrokeWidth%3D1.5%3Brounded%3D1%3BarcSize%3D12%3BedgeStyle%3DorthogonalEdgeStyle%3BstartArrow%3Dnone%3B%3BendArrow%3Dblock%3BendFill%3D1%3B%3BexitX%3D0.5%3BexitY%3D0.996%3BexitPerimeter%3D0%3BentryX%3D0.5%3BentryY%3D0.001%3BentryPerimeter%3D0%3B%22%20edge%3D%221%22%20source%3D%2219%22%20target%3D%2223%22%20parent%3D%221%22%3E%3CmxGeometry%20width%3D%22100%22%20height%3D%22100%22%20relative%3D%221%22%20as%3D%22geometry%22%3E%3CArray%20as%3D%22points%22%2F%3E%3C%2FmxGeometry%3E%3C%2FmxCell%3E%3C%2FUserObject%3E%3CmxCell%20id%3D%2221%22%20value%3D%22No%22%20style%3D%22text%3Bhtml%3D1%3Bresizable%3D0%3BlabelBackgroundColor%3D%23ffffff%3Balign%3Dcenter%3BverticalAlign%3Dmiddle%3BfontStyle%3D1%3BfontColor%3D%23333333%3B%3BfontSize%3D13.3%3B%22%20vertex%3D%221%22%20parent%3D%2220%22%3E%3CmxGeometry%20relative%3D%221%22%20as%3D%22geometry%22%2F%3E%3C%2FmxCell%3E%3CUserObject%20label%3D%22%26lt%3Bdiv%20style%3D%26quot%3Bdisplay%3A%20flex%3B%20justify-content%3A%20center%3B%20text-align%3A%20center%3B%20align-items%3A%20baseline%3B%20font-size%3A%200%3B%20line-height%3A%201.25%3Bmargin-top%3A%20-2px%3B%26quot%3B%26gt%3B%26lt%3Bspan%26gt%3B%26lt%3Bspan%20style%3D%26quot%3Bfont-size%3A16.7px%3Bcolor%3A%23333333%3B%26quot%3B%26gt%3BReturn%20PolicyNo%26lt%3B%2Fspan%26gt%3B%26lt%3Bspan%20style%3D%26quot%3Bfont-size%3A16.7px%3Bcolor%3A%23333333%3B%26quot%3B%26gt%3B%26%2310%3Bstatus%200%26lt%3B%2Fspan%26gt%3B%26lt%3B%2Fspan%26gt%3B%26lt%3B%2Fdiv%26gt%3B%22%20lucidchartObjectId%3D%22RfESt6Qn3YWl%22%20id%3D%2222%22%3E%3CmxCell%20style%3D%22html%3D1%3Boverflow%3Dblock%3BblockSpacing%3D1%3BwhiteSpace%3Dwrap%3Bshape%3Dparallelogram%3Bperimeter%3DparallelogramPerimeter%3BanchorPointDirection%3D0%3BwhiteSpace%3Dwrap%3BfontSize%3D13%3Bspacing%3D3.8%3BstrokeColor%3D%235e5e5e%3BstrokeOpacity%3D100%3Brounded%3D1%3BabsoluteArcSize%3D1%3BarcSize%3D9%3BstrokeWidth%3D2.3%3B%22%20vertex%3D%221%22%20parent%3D%221%22%3E%3CmxGeometry%20x%3D%22566%22%20y%3D%22-235%22%20width%3D%22150%22%20height%3D%2268%22%20as%3D%22geometry%22%2F%3E%3C%2FmxCell%3E%3C%2FUserObject%3E%3CUserObject%20label%3D%22Is%20match%20Key%20AND%20UUID%20%3F%22%20lucidchartObjectId%3D%22RfESuUPfaVHV%22%20id%3D%2223%22%3E%3CmxCell%20style%3D%22html%3D1%3Boverflow%3Dblock%3BblockSpacing%3D1%3BwhiteSpace%3Dwrap%3Brhombus%3BwhiteSpace%3Dwrap%3BfontSize%3D16.7%3BfontColor%3D%23333333%3Bspacing%3D3.8%3BstrokeColor%3D%235e5e5e%3BstrokeOpacity%3D100%3Brounded%3D1%3BabsoluteArcSize%3D1%3BarcSize%3D9%3BstrokeWidth%3D2.3%3B%22%20vertex%3D%221%22%20parent%3D%221%22%3E%3CmxGeometry%20x%3D%22342%22%20y%3D%22-50%22%20width%3D%22197%22%20height%3D%22100%22%20as%3D%22geometry%22%2F%3E%3C%2FmxCell%3E%3C%2FUserObject%3E%3CUserObject%20label%3D%22%22%20lucidchartObjectId%3D%22RfESYu4D74_u%22%20id%3D%2224%22%3E%3CmxCell%20style%3D%22html%3D1%3BjettySize%3D18%3BwhiteSpace%3Dwrap%3BfontSize%3D13.3%3BfontColor%3D%23333333%3BfontStyle%3D1%3BstrokeColor%3D%235E5E5E%3BstrokeWidth%3D1.5%3Brounded%3D1%3BarcSize%3D12%3BedgeStyle%3DorthogonalEdgeStyle%3BstartArrow%3Dnone%3B%3BendArrow%3Dblock%3BendFill%3D1%3B%3BexitX%3D0.5%3BexitY%3D0.999%3BexitPerimeter%3D0%3BentryX%3D0.5%3BentryY%3D-0.015%3BentryPerimeter%3D0%3B%22%20edge%3D%221%22%20source%3D%2223%22%20target%3D%2216%22%20parent%3D%221%22%3E%3CmxGeometry%20width%3D%22100%22%20height%3D%22100%22%20relative%3D%221%22%20as%3D%22geometry%22%3E%3CArray%20as%3D%22points%22%2F%3E%3C%2FmxGeometry%3E%3C%2FmxCell%3E%3C%2FUserObject%3E%3CmxCell%20id%3D%2225%22%20value%3D%22Yes%22%20style%3D%22text%3Bhtml%3D1%3Bresizable%3D0%3BlabelBackgroundColor%3D%23ffffff%3Balign%3Dcenter%3BverticalAlign%3Dmiddle%3BfontStyle%3D1%3BfontColor%3D%23333333%3B%3BfontSize%3D13.3%3B%22%20vertex%3D%221%22%20parent%3D%2224%22%3E%3CmxGeometry%20relative%3D%221%22%20as%3D%22geometry%22%2F%3E%3C%2FmxCell%3E%3CUserObject%20label%3D%22%22%20lucidchartObjectId%3D%22RfESR48NSQiQ%22%20id%3D%2226%22%3E%3CmxCell%20style%3D%22html%3D1%3BjettySize%3D18%3BwhiteSpace%3Dwrap%3BfontSize%3D13.3%3BfontColor%3D%23333333%3BfontStyle%3D1%3BstrokeColor%3D%235E5E5E%3BstrokeWidth%3D1.5%3Brounded%3D1%3BarcSize%3D12%3BedgeStyle%3DorthogonalEdgeStyle%3BstartArrow%3Dnone%3B%3BendArrow%3Dblock%3BendFill%3D1%3B%3BexitX%3D0.007%3BexitY%3D0.5%3BexitPerimeter%3D0%3BentryX%3D0.977%3BentryY%3D0.194%3BentryPerimeter%3D0%3B%22%20edge%3D%221%22%20source%3D%2223%22%20target%3D%2211%22%20parent%3D%221%22%3E%3CmxGeometry%20width%3D%22100%22%20height%3D%22100%22%20relative%3D%221%22%20as%3D%22geometry%22%3E%3CArray%20as%3D%22points%22%2F%3E%3C%2FmxGeometry%3E%3C%2FmxCell%3E%3C%2FUserObject%3E%3CmxCell%20id%3D%2227%22%20value%3D%22No%22%20style%3D%22text%3Bhtml%3D1%3Bresizable%3D0%3BlabelBackgroundColor%3D%23ffffff%3Balign%3Dcenter%3BverticalAlign%3Dmiddle%3BfontStyle%3D1%3BfontColor%3D%23333333%3B%3BfontSize%3D13.3%3B%22%20vertex%3D%221%22%20parent%3D%2226%22%3E%3CmxGeometry%20relative%3D%221%22%20as%3D%22geometry%22%2F%3E%3C%2FmxCell%3E%3CUserObject%20label%3D%22End%22%20lucidchartObjectId%3D%22RfESb1EIOMEJ%22%20id%3D%2228%22%3E%3CmxCell%20style%3D%22html%3D1%3Boverflow%3Dblock%3BblockSpacing%3D1%3BwhiteSpace%3Dwrap%3Brounded%3D1%3BarcSize%3D50%3BwhiteSpace%3Dwrap%3BfontSize%3D16.7%3BfontColor%3D%23333333%3Bspacing%3D3.8%3BstrokeColor%3D%235e5e5e%3BstrokeOpacity%3D100%3BstrokeWidth%3D2.3%3B%22%20vertex%3D%221%22%20parent%3D%221%22%3E%3CmxGeometry%20x%3D%22382%22%20y%3D%22305%22%20width%3D%22120%22%20height%3D%2260%22%20as%3D%22geometry%22%2F%3E%3C%2FmxCell%3E%3C%2FUserObject%3E%3CUserObject%20label%3D%22%22%20lucidchartObjectId%3D%22RfESn2O6iiea%22%20id%3D%2229%22%3E%3CmxCell%20style%3D%22html%3D1%3Boverflow%3Dblock%3BblockSpacing%3D1%3BwhiteSpace%3Dwrap%3Bellipse%3BwhiteSpace%3Dwrap%3BfontSize%3D13%3Bspacing%3D3.8%3BstrokeColor%3D%235e5e5e%3BstrokeOpacity%3D100%3Brounded%3D1%3BabsoluteArcSize%3D1%3BarcSize%3D9%3BstrokeWidth%3D2.3%3B%22%20vertex%3D%221%22%20parent%3D%221%22%3E%3CmxGeometry%20x%3D%22427%22%20y%3D%22230%22%20width%3D%2230%22%20height%3D%2230%22%20as%3D%22geometry%22%2F%3E%3C%2FmxCell%3E%3C%2FUserObject%3E%3CUserObject%20label%3D%22%22%20lucidchartObjectId%3D%22RfESN7qUMssd%22%20id%3D%2230%22%3E%3CmxCell%20style%3D%22html%3D1%3BjettySize%3D18%3BwhiteSpace%3Dwrap%3BfontSize%3D13.3%3BfontColor%3D%23333333%3BfontStyle%3D1%3BstrokeColor%3D%235E5E5E%3BstrokeWidth%3D1.5%3Brounded%3D1%3BarcSize%3D12%3BedgeStyle%3DorthogonalEdgeStyle%3BstartArrow%3Dnone%3B%3BendArrow%3Dblock%3BendFill%3D1%3B%3BexitX%3D0.992%3BexitY%3D0.5%3BexitPerimeter%3D0%3BentryX%3D0.052%3BentryY%3D0.5%3BentryPerimeter%3D0%3B%22%20edge%3D%221%22%20source%3D%2219%22%20target%3D%2222%22%20parent%3D%221%22%3E%3CmxGeometry%20width%3D%22100%22%20height%3D%22100%22%20relative%3D%221%22%20as%3D%22geometry%22%3E%3CArray%20as%3D%22points%22%2F%3E%3C%2FmxGeometry%3E%3C%2FmxCell%3E%3C%2FUserObject%3E%3CmxCell%20id%3D%2231%22%20value%3D%22Yes%22%20style%3D%22text%3Bhtml%3D1%3Bresizable%3D0%3BlabelBackgroundColor%3D%23ffffff%3Balign%3Dcenter%3BverticalAlign%3Dmiddle%3BfontStyle%3D1%3BfontColor%3D%23333333%3B%3BfontSize%3D13.3%3B%22%20vertex%3D%221%22%20parent%3D%2230%22%3E%3CmxGeometry%20relative%3D%221%22%20as%3D%22geometry%22%2F%3E%3C%2FmxCell%3E%3CUserObject%20label%3D%22%22%20lucidchartObjectId%3D%22RfESdK9x-U1.%22%20id%3D%2232%22%3E%3CmxCell%20style%3D%22html%3D1%3BjettySize%3D18%3BwhiteSpace%3Dwrap%3BfontSize%3D13%3BstrokeColor%3D%235E5E5E%3BstrokeWidth%3D1.5%3Brounded%3D1%3BarcSize%3D12%3BedgeStyle%3DorthogonalEdgeStyle%3BstartArrow%3Dnone%3B%3BendArrow%3Dblock%3BendFill%3D1%3B%3BexitX%3D0.5%3BexitY%3D1.017%3BexitPerimeter%3D0%3BentryX%3D1.038%3BentryY%3D0.5%3BentryPerimeter%3D0%3B%22%20edge%3D%221%22%20source%3D%2222%22%20target%3D%2229%22%20parent%3D%221%22%3E%3CmxGeometry%20width%3D%22100%22%20height%3D%22100%22%20relative%3D%221%22%20as%3D%22geometry%22%3E%3CArray%20as%3D%22points%22%3E%3CmxPoint%20x%3D%22641%22%20y%3D%22245%22%2F%3E%3C%2FArray%3E%3C%2FmxGeometry%3E%3C%2FmxCell%3E%3C%2FUserObject%3E%3CUserObject%20label%3D%22%22%20lucidchartObjectId%3D%22RfESwgDEE3HP%22%20id%3D%2233%22%3E%3CmxCell%20style%3D%22html%3D1%3BjettySize%3D18%3BwhiteSpace%3Dwrap%3BfontSize%3D13%3BstrokeColor%3D%235E5E5E%3BstrokeWidth%3D1.5%3Brounded%3D1%3BarcSize%3D12%3BedgeStyle%3DorthogonalEdgeStyle%3BstartArrow%3Dnone%3B%3BendArrow%3Dblock%3BendFill%3D1%3B%3BexitX%3D0.5%3BexitY%3D1.015%3BexitPerimeter%3D0%3BentryX%3D-0.038%3BentryY%3D0.5%3BentryPerimeter%3D0%3B%22%20edge%3D%221%22%20source%3D%2211%22%20target%3D%2229%22%20parent%3D%221%22%3E%3CmxGeometry%20width%3D%22100%22%20height%3D%22100%22%20relative%3D%221%22%20as%3D%22geometry%22%3E%3CArray%20as%3D%22points%22%3E%3CmxPoint%20x%3D%22187%22%20y%3D%22245%22%2F%3E%3C%2FArray%3E%3C%2FmxGeometry%3E%3C%2FmxCell%3E%3C%2FUserObject%3E%3CUserObject%20label%3D%22%22%20lucidchartObjectId%3D%22RfESlABROHe5%22%20id%3D%2234%22%3E%3CmxCell%20style%3D%22html%3D1%3BjettySize%3D18%3BwhiteSpace%3Dwrap%3BfontSize%3D13%3BstrokeColor%3D%235E5E5E%3BstrokeWidth%3D1.5%3Brounded%3D1%3BarcSize%3D12%3BedgeStyle%3DorthogonalEdgeStyle%3BstartArrow%3Dnone%3B%3BendArrow%3Dblock%3BendFill%3D1%3B%3BexitX%3D0.5%3BexitY%3D1.015%3BexitPerimeter%3D0%3BentryX%3D0.5%3BentryY%3D-0.038%3BentryPerimeter%3D0%3B%22%20edge%3D%221%22%20source%3D%2216%22%20target%3D%2229%22%20parent%3D%221%22%3E%3CmxGeometry%20width%3D%22100%22%20height%3D%22100%22%20relative%3D%221%22%20as%3D%22geometry%22%3E%3CArray%20as%3D%22points%22%2F%3E%3C%2FmxGeometry%3E%3C%2FmxCell%3E%3C%2FUserObject%3E%3CUserObject%20label%3D%22%22%20lucidchartObjectId%3D%22RfESs~JhSnjZ%22%20id%3D%2235%22%3E%3CmxCell%20style%3D%22html%3D1%3BjettySize%3D18%3BwhiteSpace%3Dwrap%3BfontSize%3D13%3BstrokeColor%3D%235E5E5E%3BstrokeWidth%3D1.5%3Brounded%3D1%3BarcSize%3D12%3BedgeStyle%3DorthogonalEdgeStyle%3BstartArrow%3Dnone%3B%3BendArrow%3Dblock%3BendFill%3D1%3B%3BexitX%3D0.5%3BexitY%3D1.038%3BexitPerimeter%3D0%3BentryX%3D0.501%3BentryY%3D-0.019%3BentryPerimeter%3D0%3B%22%20edge%3D%221%22%20source%3D%2229%22%20target%3D%2228%22%20parent%3D%221%22%3E%3CmxGeometry%20width%3D%22100%22%20height%3D%22100%22%20relative%3D%221%22%20as%3D%22geometry%22%3E%3CArray%20as%3D%22points%22%2F%3E%3C%2FmxGeometry%3E%3C%2FmxCell%3E%3C%2FUserObject%3E%3CUserObject%20label%3D%22%22%20lucidchartObjectId%3D%22RfESZgxQdzNJ%22%20id%3D%2236%22%3E%3CmxCell%20style%3D%22html%3D1%3BjettySize%3D18%3BwhiteSpace%3Dwrap%3BfontSize%3D13%3BstrokeColor%3D%235E5E5E%3Bdashed%3D1%3BfixDash%3D1%3BdashPattern%3D3%208%3BstrokeWidth%3D1.5%3Brounded%3D1%3BarcSize%3D12%3BedgeStyle%3DorthogonalEdgeStyle%3BstartArrow%3Dnone%3B%3BendArrow%3Dblock%3BendFill%3D1%3B%3BexitX%3D1.009%3BexitY%3D0.5%3BexitPerimeter%3D0%3BentryX%3D0.993%3BentryY%3D0.5%3BentryPerimeter%3D0%3B%22%20edge%3D%221%22%20source%3D%2215%22%20target%3D%2223%22%20parent%3D%221%22%3E%3CmxGeometry%20width%3D%22100%22%20height%3D%22100%22%20relative%3D%221%22%20as%3D%22geometry%22%3E%3CArray%20as%3D%22points%22%3E%3CmxPoint%20x%3D%22920%22%20y%3D%22-505%22%2F%3E%3CmxPoint%20x%3D%22920%22%20y%3D%22-2%22%2F%3E%3CmxPoint%20x%3D%22730%22%20y%3D%22-2%22%2F%3E%3CmxPoint%20x%3D%22730%22%2F%3E%3C%2FArray%3E%3C%2FmxGeometry%3E%3C%2FmxCell%3E%3C%2FUserObject%3E%3C%2Froot%3E%3C%2FmxGraphModel%3E&lt;/span&gt;&lt;span style=&quot;font-size: 16.7px ; color: #333333&quot;&gt;&lt;br&gt;&lt;/span&gt;&lt;/span&gt;&lt;/div&gt;" lucidchartObjectId="RfES6oHhgi.R" id="G-4nyz9Tfzs4VZ82WxkJ-10">
          <mxCell style="html=1;overflow=block;blockSpacing=1;whiteSpace=wrap;shape=parallelogram;perimeter=parallelogramPerimeter;anchorPointDirection=0;whiteSpace=wrap;fontSize=13;spacing=3.8;strokeColor=#5e5e5e;strokeOpacity=100;rounded=1;absoluteArcSize=1;arcSize=9;strokeWidth=2.3;" vertex="1" parent="1">
            <mxGeometry x="127" y="-17" width="193" height="97" as="geometry" />
          </mxCell>
        </UserObject>
        <UserObject label="" lucidchartObjectId="RfESB-tBJiT." id="G-4nyz9Tfzs4VZ82WxkJ-11">
          <mxCell style="html=1;jettySize=18;whiteSpace=wrap;fontSize=13.3;fontColor=#333333;fontStyle=1;strokeColor=#5E5E5E;strokeWidth=1.5;rounded=1;arcSize=12;edgeStyle=orthogonalEdgeStyle;startArrow=none;;endArrow=block;endFill=1;;exitX=0.992;exitY=0.5;exitPerimeter=0;entryX=0.5;entryY=-0.019;entryPerimeter=0;" edge="1" parent="1" source="G-4nyz9Tfzs4VZ82WxkJ-7" target="G-4nyz9Tfzs4VZ82WxkJ-13">
            <mxGeometry width="100" height="100" relative="1" as="geometry">
              <Array as="points" />
            </mxGeometry>
          </mxCell>
        </UserObject>
        <mxCell id="G-4nyz9Tfzs4VZ82WxkJ-12" value="No" style="text;html=1;resizable=0;labelBackgroundColor=#ffffff;align=center;verticalAlign=middle;fontStyle=1;fontColor=#333333;;fontSize=13.3;" vertex="1" parent="G-4nyz9Tfzs4VZ82WxkJ-11">
          <mxGeometry relative="1" as="geometry" />
        </mxCell>
        <UserObject label="Cache RefNo,UUID" lucidchartObjectId="RfESqzr8yPql" id="G-4nyz9Tfzs4VZ82WxkJ-13">
          <mxCell style="html=1;overflow=block;blockSpacing=1;whiteSpace=wrap;;whiteSpace=wrap;fontSize=16.7;fontColor=#333333;spacing=9;strokeColor=#5E5E5E;rounded=1;absoluteArcSize=1;arcSize=9;strokeWidth=2.3;" vertex="1" parent="1">
            <mxGeometry x="513" y="-370" width="120" height="60" as="geometry" />
          </mxCell>
        </UserObject>
        <UserObject label="Key:REF01&#xa;Value:UUID-X" lucidchartObjectId="RfESrkKaoY10" id="G-4nyz9Tfzs4VZ82WxkJ-14">
          <mxCell style="html=1;overflow=block;blockSpacing=1;whiteSpace=wrap;;whiteSpace=wrap;fontSize=16.7;fontColor=#333333;align=left;spacing=9;verticalAlign=top;strokeColor=#5e5e5e;strokeOpacity=100;rounded=1;absoluteArcSize=1;arcSize=9;strokeWidth=2.3;" vertex="1" parent="1">
            <mxGeometry x="772" y="-550" width="120" height="90" as="geometry" />
          </mxCell>
        </UserObject>
        <UserObject label="sendDataToPolicy" lucidchartObjectId="RfES9Xd7AMhH" id="G-4nyz9Tfzs4VZ82WxkJ-15">
          <mxCell style="html=1;overflow=block;blockSpacing=1;whiteSpace=wrap;;whiteSpace=wrap;fontSize=16.7;fontColor=#333333;spacing=9;strokeColor=#5e5e5e;strokeOpacity=100;rounded=1;absoluteArcSize=1;arcSize=9;strokeWidth=2.3;" vertex="1" parent="1">
            <mxGeometry x="352" y="117" width="180" height="75" as="geometry" />
          </mxCell>
        </UserObject>
        <UserObject label="" lucidchartObjectId="RfESdF0UsaAf" id="G-4nyz9Tfzs4VZ82WxkJ-16">
          <mxCell style="html=1;jettySize=18;whiteSpace=wrap;fontSize=13;strokeColor=#5E5E5E;strokeWidth=1.5;rounded=1;arcSize=12;edgeStyle=orthogonalEdgeStyle;startArrow=none;;endArrow=block;endFill=1;;exitX=1.009;exitY=0.5;exitPerimeter=0;entryX=0.5;entryY=1.013;entryPerimeter=0;" edge="1" parent="1" source="G-4nyz9Tfzs4VZ82WxkJ-13" target="G-4nyz9Tfzs4VZ82WxkJ-14">
            <mxGeometry width="100" height="100" relative="1" as="geometry">
              <Array as="points" />
            </mxGeometry>
          </mxCell>
        </UserObject>
        <UserObject label="" lucidchartObjectId="RfESupoxdjBH" id="G-4nyz9Tfzs4VZ82WxkJ-17">
          <mxCell style="html=1;jettySize=18;whiteSpace=wrap;fontSize=13;strokeColor=#5E5E5E;strokeWidth=1.5;rounded=1;arcSize=12;edgeStyle=orthogonalEdgeStyle;startArrow=none;;endArrow=block;endFill=1;;exitX=0.5;exitY=1.019;exitPerimeter=0;entryX=0.5;entryY=0.004;entryPerimeter=0;" edge="1" parent="1" source="G-4nyz9Tfzs4VZ82WxkJ-13" target="G-4nyz9Tfzs4VZ82WxkJ-18">
            <mxGeometry width="100" height="100" relative="1" as="geometry">
              <Array as="points">
                <mxPoint x="573" y="-290" />
                <mxPoint x="441" y="-290" />
              </Array>
            </mxGeometry>
          </mxCell>
        </UserObject>
        <UserObject label="Is RefNo In Database" lucidchartObjectId="RfESoaNUnF.c" id="G-4nyz9Tfzs4VZ82WxkJ-18">
          <mxCell style="html=1;overflow=block;blockSpacing=1;whiteSpace=wrap;rhombus;whiteSpace=wrap;fontSize=16.7;fontColor=#333333;spacing=3.8;strokeColor=#5E5E5E;rounded=1;absoluteArcSize=1;arcSize=9;strokeWidth=2.3;" vertex="1" parent="1">
            <mxGeometry x="371" y="-250" width="139" height="98" as="geometry" />
          </mxCell>
        </UserObject>
        <UserObject label="" lucidchartObjectId="RfESz2cmBlqu" id="G-4nyz9Tfzs4VZ82WxkJ-19">
          <mxCell style="html=1;jettySize=18;whiteSpace=wrap;fontSize=13.3;fontColor=#333333;fontStyle=1;strokeColor=#5E5E5E;strokeWidth=1.5;rounded=1;arcSize=12;edgeStyle=orthogonalEdgeStyle;startArrow=none;;endArrow=block;endFill=1;;exitX=0.5;exitY=0.996;exitPerimeter=0;entryX=0.5;entryY=0.001;entryPerimeter=0;" edge="1" parent="1" source="G-4nyz9Tfzs4VZ82WxkJ-18" target="G-4nyz9Tfzs4VZ82WxkJ-22">
            <mxGeometry width="100" height="100" relative="1" as="geometry">
              <Array as="points" />
            </mxGeometry>
          </mxCell>
        </UserObject>
        <mxCell id="G-4nyz9Tfzs4VZ82WxkJ-20" value="No" style="text;html=1;resizable=0;labelBackgroundColor=#ffffff;align=center;verticalAlign=middle;fontStyle=1;fontColor=#333333;;fontSize=13.3;" vertex="1" parent="G-4nyz9Tfzs4VZ82WxkJ-19">
          <mxGeometry relative="1" as="geometry" />
        </mxCell>
        <UserObject label="&lt;div style=&quot;display: flex; justify-content: center; text-align: center; align-items: baseline; font-size: 0; line-height: 1.25;margin-top: -2px;&quot;&gt;&lt;span&gt;&lt;span style=&quot;font-size:16.7px;color:#333333;&quot;&gt;Return PolicyNo&lt;/span&gt;&lt;span style=&quot;font-size:16.7px;color:#333333;&quot;&gt;&#xa;status 0&lt;/span&gt;&lt;/span&gt;&lt;/div&gt;" lucidchartObjectId="RfESt6Qn3YWl" id="G-4nyz9Tfzs4VZ82WxkJ-21">
          <mxCell style="html=1;overflow=block;blockSpacing=1;whiteSpace=wrap;shape=parallelogram;perimeter=parallelogramPerimeter;anchorPointDirection=0;whiteSpace=wrap;fontSize=13;spacing=3.8;strokeColor=#5e5e5e;strokeOpacity=100;rounded=1;absoluteArcSize=1;arcSize=9;strokeWidth=2.3;" vertex="1" parent="1">
            <mxGeometry x="566" y="-235" width="150" height="68" as="geometry" />
          </mxCell>
        </UserObject>
        <UserObject label="Is match Key AND UUID ?" lucidchartObjectId="RfESuUPfaVHV" id="G-4nyz9Tfzs4VZ82WxkJ-22">
          <mxCell style="html=1;overflow=block;blockSpacing=1;whiteSpace=wrap;rhombus;whiteSpace=wrap;fontSize=16.7;fontColor=#333333;spacing=3.8;strokeColor=#5e5e5e;strokeOpacity=100;rounded=1;absoluteArcSize=1;arcSize=9;strokeWidth=2.3;" vertex="1" parent="1">
            <mxGeometry x="342" y="-50" width="197" height="100" as="geometry" />
          </mxCell>
        </UserObject>
        <UserObject label="" lucidchartObjectId="RfESYu4D74_u" id="G-4nyz9Tfzs4VZ82WxkJ-23">
          <mxCell style="html=1;jettySize=18;whiteSpace=wrap;fontSize=13.3;fontColor=#333333;fontStyle=1;strokeColor=#5E5E5E;strokeWidth=1.5;rounded=1;arcSize=12;edgeStyle=orthogonalEdgeStyle;startArrow=none;;endArrow=block;endFill=1;;exitX=0.5;exitY=0.999;exitPerimeter=0;entryX=0.5;entryY=-0.015;entryPerimeter=0;" edge="1" parent="1" source="G-4nyz9Tfzs4VZ82WxkJ-22" target="G-4nyz9Tfzs4VZ82WxkJ-15">
            <mxGeometry width="100" height="100" relative="1" as="geometry">
              <Array as="points" />
            </mxGeometry>
          </mxCell>
        </UserObject>
        <mxCell id="G-4nyz9Tfzs4VZ82WxkJ-24" value="Yes" style="text;html=1;resizable=0;labelBackgroundColor=#ffffff;align=center;verticalAlign=middle;fontStyle=1;fontColor=#333333;;fontSize=13.3;" vertex="1" parent="G-4nyz9Tfzs4VZ82WxkJ-23">
          <mxGeometry relative="1" as="geometry" />
        </mxCell>
        <UserObject label="" lucidchartObjectId="RfESR48NSQiQ" id="G-4nyz9Tfzs4VZ82WxkJ-25">
          <mxCell style="html=1;jettySize=18;whiteSpace=wrap;fontSize=13.3;fontColor=#333333;fontStyle=1;strokeColor=#5E5E5E;strokeWidth=1.5;rounded=1;arcSize=12;edgeStyle=orthogonalEdgeStyle;startArrow=none;;endArrow=block;endFill=1;;exitX=0.007;exitY=0.5;exitPerimeter=0;entryX=0.977;entryY=0.194;entryPerimeter=0;" edge="1" parent="1" source="G-4nyz9Tfzs4VZ82WxkJ-22" target="G-4nyz9Tfzs4VZ82WxkJ-10">
            <mxGeometry width="100" height="100" relative="1" as="geometry">
              <Array as="points" />
            </mxGeometry>
          </mxCell>
        </UserObject>
        <mxCell id="G-4nyz9Tfzs4VZ82WxkJ-26" value="No" style="text;html=1;resizable=0;labelBackgroundColor=#ffffff;align=center;verticalAlign=middle;fontStyle=1;fontColor=#333333;;fontSize=13.3;" vertex="1" parent="G-4nyz9Tfzs4VZ82WxkJ-25">
          <mxGeometry relative="1" as="geometry" />
        </mxCell>
        <UserObject label="End" lucidchartObjectId="RfESb1EIOMEJ" id="G-4nyz9Tfzs4VZ82WxkJ-27">
          <mxCell style="html=1;overflow=block;blockSpacing=1;whiteSpace=wrap;rounded=1;arcSize=50;whiteSpace=wrap;fontSize=16.7;fontColor=#333333;spacing=3.8;strokeColor=#5e5e5e;strokeOpacity=100;strokeWidth=2.3;" vertex="1" parent="1">
            <mxGeometry x="382" y="305" width="120" height="60" as="geometry" />
          </mxCell>
        </UserObject>
        <UserObject label="" lucidchartObjectId="RfESn2O6iiea" id="G-4nyz9Tfzs4VZ82WxkJ-28">
          <mxCell style="html=1;overflow=block;blockSpacing=1;whiteSpace=wrap;ellipse;whiteSpace=wrap;fontSize=13;spacing=3.8;strokeColor=#5e5e5e;strokeOpacity=100;rounded=1;absoluteArcSize=1;arcSize=9;strokeWidth=2.3;" vertex="1" parent="1">
            <mxGeometry x="427" y="230" width="30" height="30" as="geometry" />
          </mxCell>
        </UserObject>
        <UserObject label="" lucidchartObjectId="RfESN7qUMssd" id="G-4nyz9Tfzs4VZ82WxkJ-29">
          <mxCell style="html=1;jettySize=18;whiteSpace=wrap;fontSize=13.3;fontColor=#333333;fontStyle=1;strokeColor=#5E5E5E;strokeWidth=1.5;rounded=1;arcSize=12;edgeStyle=orthogonalEdgeStyle;startArrow=none;;endArrow=block;endFill=1;;exitX=0.992;exitY=0.5;exitPerimeter=0;entryX=0.052;entryY=0.5;entryPerimeter=0;" edge="1" parent="1" source="G-4nyz9Tfzs4VZ82WxkJ-18" target="G-4nyz9Tfzs4VZ82WxkJ-21">
            <mxGeometry width="100" height="100" relative="1" as="geometry">
              <Array as="points" />
            </mxGeometry>
          </mxCell>
        </UserObject>
        <mxCell id="G-4nyz9Tfzs4VZ82WxkJ-30" value="Yes" style="text;html=1;resizable=0;labelBackgroundColor=#ffffff;align=center;verticalAlign=middle;fontStyle=1;fontColor=#333333;;fontSize=13.3;" vertex="1" parent="G-4nyz9Tfzs4VZ82WxkJ-29">
          <mxGeometry relative="1" as="geometry" />
        </mxCell>
        <UserObject label="" lucidchartObjectId="RfESdK9x-U1." id="G-4nyz9Tfzs4VZ82WxkJ-31">
          <mxCell style="html=1;jettySize=18;whiteSpace=wrap;fontSize=13;strokeColor=#5E5E5E;strokeWidth=1.5;rounded=1;arcSize=12;edgeStyle=orthogonalEdgeStyle;startArrow=none;;endArrow=block;endFill=1;;exitX=0.5;exitY=1.017;exitPerimeter=0;entryX=1.038;entryY=0.5;entryPerimeter=0;" edge="1" parent="1" source="G-4nyz9Tfzs4VZ82WxkJ-21" target="G-4nyz9Tfzs4VZ82WxkJ-28">
            <mxGeometry width="100" height="100" relative="1" as="geometry">
              <Array as="points">
                <mxPoint x="641" y="245" />
              </Array>
            </mxGeometry>
          </mxCell>
        </UserObject>
        <UserObject label="" lucidchartObjectId="RfESwgDEE3HP" id="G-4nyz9Tfzs4VZ82WxkJ-32">
          <mxCell style="html=1;jettySize=18;whiteSpace=wrap;fontSize=13;strokeColor=#5E5E5E;strokeWidth=1.5;rounded=1;arcSize=12;edgeStyle=orthogonalEdgeStyle;startArrow=none;;endArrow=block;endFill=1;;exitX=0.5;exitY=1.015;exitPerimeter=0;entryX=-0.038;entryY=0.5;entryPerimeter=0;" edge="1" parent="1" source="G-4nyz9Tfzs4VZ82WxkJ-10" target="G-4nyz9Tfzs4VZ82WxkJ-28">
            <mxGeometry width="100" height="100" relative="1" as="geometry">
              <Array as="points">
                <mxPoint x="187" y="245" />
              </Array>
            </mxGeometry>
          </mxCell>
        </UserObject>
        <UserObject label="" lucidchartObjectId="RfESlABROHe5" id="G-4nyz9Tfzs4VZ82WxkJ-33">
          <mxCell style="html=1;jettySize=18;whiteSpace=wrap;fontSize=13;strokeColor=#5E5E5E;strokeWidth=1.5;rounded=1;arcSize=12;edgeStyle=orthogonalEdgeStyle;startArrow=none;;endArrow=block;endFill=1;;exitX=0.5;exitY=1.015;exitPerimeter=0;entryX=0.5;entryY=-0.038;entryPerimeter=0;" edge="1" parent="1" source="G-4nyz9Tfzs4VZ82WxkJ-15" target="G-4nyz9Tfzs4VZ82WxkJ-28">
            <mxGeometry width="100" height="100" relative="1" as="geometry">
              <Array as="points" />
            </mxGeometry>
          </mxCell>
        </UserObject>
        <UserObject label="" lucidchartObjectId="RfESs~JhSnjZ" id="G-4nyz9Tfzs4VZ82WxkJ-34">
          <mxCell style="html=1;jettySize=18;whiteSpace=wrap;fontSize=13;strokeColor=#5E5E5E;strokeWidth=1.5;rounded=1;arcSize=12;edgeStyle=orthogonalEdgeStyle;startArrow=none;;endArrow=block;endFill=1;;exitX=0.5;exitY=1.038;exitPerimeter=0;entryX=0.501;entryY=-0.019;entryPerimeter=0;" edge="1" parent="1" source="G-4nyz9Tfzs4VZ82WxkJ-28" target="G-4nyz9Tfzs4VZ82WxkJ-27">
            <mxGeometry width="100" height="100" relative="1" as="geometry">
              <Array as="points" />
            </mxGeometry>
          </mxCell>
        </UserObject>
        <UserObject label="" lucidchartObjectId="RfESZgxQdzNJ" id="G-4nyz9Tfzs4VZ82WxkJ-35">
          <mxCell style="html=1;jettySize=18;whiteSpace=wrap;fontSize=13;strokeColor=#5E5E5E;dashed=1;fixDash=1;dashPattern=3 8;strokeWidth=1.5;rounded=1;arcSize=12;edgeStyle=orthogonalEdgeStyle;startArrow=none;;endArrow=block;endFill=1;;exitX=1.009;exitY=0.5;exitPerimeter=0;entryX=0.993;entryY=0.5;entryPerimeter=0;" edge="1" parent="1" source="G-4nyz9Tfzs4VZ82WxkJ-14" target="G-4nyz9Tfzs4VZ82WxkJ-22">
            <mxGeometry width="100" height="100" relative="1" as="geometry">
              <Array as="points">
                <mxPoint x="920" y="-505" />
                <mxPoint x="920" y="-2" />
                <mxPoint x="730" y="-2" />
                <mxPoint x="730" />
              </Array>
            </mxGeometry>
          </mxCell>
        </UserObject>
      </root>
    </mxGraphModel>
  </diagram>
</mxfile>
